<?xml version="1.0" encoding="UTF-8" standalone="no"?>
<!-- Created with Inkscape (http://www.inkscape.org/) -->

<svg
   width="210mm"
   height="297mm"
   viewBox="0 0 210 297"
   version="1.1"
   id="svg1"
   inkscape:version="1.3.2 (091e20ef0f, 2023-11-25)"
   sodipodi:docname="you_are_so_precious.svg"
   xmlns:inkscape="http://www.inkscape.org/namespaces/inkscape"
   xmlns:sodipodi="http://sodipodi.sourceforge.net/DTD/sodipodi-0.dtd"
   xmlns="http://www.w3.org/2000/svg"
   xmlns:svg="http://www.w3.org/2000/svg">
  <sodipodi:namedview
     id="namedview1"
     pagecolor="#ffffff"
     bordercolor="#000000"
     borderopacity="0.25"
     inkscape:showpageshadow="2"
     inkscape:pageopacity="0.0"
     inkscape:pagecheckerboard="0"
     inkscape:deskcolor="#d1d1d1"
     inkscape:document-units="mm"
     inkscape:zoom="1.6009502"
     inkscape:cx="229.8635"
     inkscape:cy="89.009642"
     inkscape:window-width="1916"
     inkscape:window-height="1058"
     inkscape:window-x="0"
     inkscape:window-y="0"
     inkscape:window-maximized="0"
     inkscape:current-layer="layer1" />
  <defs
     id="defs1" />
  <g
     inkscape:label="Layer 1"
     inkscape:groupmode="layer"
     id="layer1">
    <path
       style="color:#000000;-inkscape-font-specification:Impacted;fill:#ffffff;fill-opacity:1;stroke:#000000;stroke-opacity:1;-inkscape-stroke:none"
       d="m 5.5342847,21.075099 3.714844,12.962891 v 7.380859 H 14.350691 V 34.03799 l 3.781251,-12.728516 -0.130859,-0.0059 -0.101563,-0.134766 -0.03906,0.128906 -4.742189,-0.222656 -0.02148,0.103516 c -0.613147,2.826459 -1.016548,5.123324 -1.3125,7.148437 -0.141155,-1.459972 -0.46513,-3.613136 -1.144531,-7.144531 l -0.02149,-0.107422 h -0.7167973 -0.59375 -1.271485 l -0.328125,0.453166 -0.107421,-0.453125 h -0.699219 z m 159.2890653,0 v 2.880859 h 5.42383 v -2.880859 h -0.13086 z M 5.8858477,21.338771 h 1.015625 0.490234 l 0.191406,0.8125 0.587891,-0.8125 h 1.136719 0.59375 0.4960933 c 0.732905,3.821503 1.15743,6.455455 1.246094,7.777344 l 0.261719,0.0098 c 0.284904,-2.108294 0.766128,-4.717802 1.429687,-7.787109 h 4.513673 l -3.763673,12.660156 v 7.154297 H 9.5128007 v -7.152344 z m 159.2031223,0 h 4.89454 v 2.353516 h -4.89454 z m -151.363279,0.466797 0.04102,0.166015 0.259765,1.039063 1.052736,-1.205078 z m 0.339844,0.265625 h 0.431642 l -0.335939,0.384765 z m 2.263673,0.111328 -1.089844,0.136719 0.01367,0.128906 0.117187,1.183594 0.830078,-0.416016 z m -0.304688,0.306641 -0.06836,0.552734 -0.361328,0.181641 -0.06641,-0.673829 z m 53.244141,1.90039 -0.142578,0.0098 c -1.275853,0.08404 -2.24779,0.872519 -2.978516,2.142578 l 0.169922,-1.845703 h -0.146484 -5.142579 v 16.722656 h 5.275391 v -6.630859 c 0,-1.593025 0.0549,-2.616999 0.146484,-3.021485 v -0.002 c 0.09157,-0.412046 0.326466,-0.721999 0.730469,-0.955078 0.394655,-0.227685 1.049224,-0.355469 1.955078,-0.355469 h 0.132813 z m 69.154299,0 -0.14063,0.0098 c -1.27622,0.08406 -2.24969,0.871822 -2.98047,2.142578 l 0.16993,-1.845703 h -0.14453 -5.14258 v 1.759765 l 0.26367,0.01172 V 24.9599 h 4.73242 l -0.1582,1.728515 0.16406,0.0078 c -0.019,0.03573 -0.0478,0.05133 -0.0664,0.08789 l -0.10546,-0.0039 -0.0176,0.19336 0.25195,0.06836 c 0.0502,-0.106593 0.12861,-0.142909 0.18164,-0.242188 l -0.15039,-0.0078 0.008,-0.0918 0.20899,0.0098 c 0.66547,-1.188135 1.53313,-1.87072 2.66211,-1.994141 v 2.123047 l 0.26367,0.01172 z m -115.36133,0.0098 c -1.356601,0 -2.48321,0.262159 -3.369141,0.798828 -0.881058,0.533718 -1.498538,1.249323 -1.839844,2.136719 -0.340163,0.884425 -0.505859,2.093657 -0.505859,3.632812 v 4.216797 c 0,1.40307 0.09011,2.460206 0.277344,3.183594 0.186293,0.7113 0.498263,1.325737 0.933593,1.83789 v 0.002 h 0.002 c 0.448461,0.508829 1.069266,0.888964 1.855469,1.142578 h 0.002 c 0.786183,0.245154 1.737984,0.365234 2.855469,0.365234 1.004681,0 1.895609,-0.142084 2.673828,-0.429687 h 0.002 c 0.788301,-0.296673 1.436691,-0.753647 1.939453,-1.367188 h 0.002 c 0.499098,-0.617528 0.826997,-1.282564 0.980468,-1.990234 0.152862,-0.713356 0.226563,-1.804617 0.226563,-3.289063 v -4.03125 c 0,-1.172073 -0.08183,-2.048928 -0.253906,-2.642578 -0.162993,-0.589831 -0.469003,-1.158658 -0.916203,-1.707111 -0.454742,-0.557703 -1.098867,-1.004828 -1.923828,-1.341797 h -0.002 C 25.178969,24.569718 24.198669,24.399318 23.06163,24.399318 Z m 30.732421,0 c -1.43037,0 -2.604282,0.267398 -3.515625,0.8125 -0.900971,0.538899 -1.516567,1.169517 -1.828125,1.896484 -0.300769,0.713254 -0.443359,1.706906 -0.443359,2.990235 v 1.236328 h 4.964844 v -0.130894 -1.724609 c 0,-0.4569 0.009,-0.825504 0.0293,-1.103516 0.02029,-0.278012 0.05592,-0.470777 0.08594,-0.548828 0.03111,-0.08401 0.07869,-0.139548 0.158203,-0.18164 0.07951,-0.04209 0.194631,-0.06836 0.34961,-0.06836 0.258459,0 0.406911,0.09256 0.513672,0.320313 v 0.0039 l 0.002,0.002 c 0.104638,0.202737 0.183594,0.76017 0.183593,1.613281 0,0.678824 -0.06795,1.12867 -0.158203,1.302735 -0.0055,0.01051 -0.06857,0.08103 -0.185547,0.158203 -0.116978,0.07718 -0.286767,0.170303 -0.503906,0.277344 -0.434277,0.21408 -1.062048,0.48298 -1.882812,0.804687 -1.544774,0.597977 -2.515178,1.1099 -2.941407,1.599609 -0.428165,0.491936 -0.615234,1.357642 -0.615234,2.603516 v 1.353516 c 0,1.681218 0.364025,2.810875 1.148438,3.345703 h 0.002 c 0.756031,0.501189 1.589258,0.753906 2.490234,0.753906 0.68878,0 1.290087,-0.149662 1.792969,-0.453125 0.407591,-0.2487 0.706978,-0.664619 0.990234,-1.101562 v 1.257812 h 5.138672 v -8.392578 c 0,-2.723059 -0.08483,-4.513985 -0.263672,-5.408203 -0.180613,-0.911668 -0.722066,-1.680781 -1.603515,-2.291016 -0.893351,-0.627063 -2.197516,-0.927734 -3.908204,-0.927734 z m 21.853516,0 c -1.166413,0 -2.206058,0.226729 -3.111328,0.683594 -0.906364,0.449604 -1.570027,1.111627 -1.970703,1.972656 -0.400723,0.853412 -0.595703,2.00334 -0.595703,3.453125 v 4.798828 c 0,1.229954 0.08653,2.172687 0.265625,2.837891 0.17872,0.655306 0.499525,1.261798 0.957031,1.8125 0.471853,0.549065 1.124957,0.979077 1.951172,1.291015 0.828091,0.312647 1.77853,0.466797 2.849609,0.466797 1.103766,0 2.028022,-0.153395 2.769531,-0.46875 0.747141,-0.322629 1.366942,-0.805701 1.851563,-1.443359 0.478805,-0.630006 0.786172,-1.226863 0.916016,-1.796875 v -0.002 c 0.136496,-0.563896 0.201171,-1.351155 0.201171,-2.373047 V 34.28407 H 76.71788 v 2.300782 c 0,0.811427 -0.07482,1.360928 -0.1875,1.607422 v 0.002 c -0.103866,0.235427 -0.287021,0.34375 -0.634766,0.34375 -0.274936,0 -0.416917,-0.07993 -0.501953,-0.25 -0.08018,-0.160363 -0.148438,-0.641137 -0.148438,-1.378907 v -3.427734 h 6.486328 v -0.132846 -2.181641 c 0,-1.606048 -0.185004,-2.858704 -0.568359,-3.761719 -0.375007,-0.910314 -1.039903,-1.640963 -1.976562,-2.18164 -0.935202,-0.552619 -2.116604,-0.824219 -3.539063,-0.824219 z m 16.878904,0 c -0.416264,0 -0.7233,0.145197 -1.103513,0.193359 l 3.472653,0.167969 c -0.69792,-0.202297 -1.44402,-0.361328 -2.36914,-0.361328 z m 12.576179,0 c -1.20154,0 -2.14944,0.286846 -2.98243,0.707031 l 0.91407,0.04492 c 0.64531,-0.208429 1.22168,-0.488281 2.06836,-0.488281 1.11118,0 2.05629,0.167682 2.83789,0.498047 h 0.002 c 0.15254,0.06226 0.21106,0.172744 0.34961,0.242187 l 0.48242,0.02344 c -0.26062,-0.159523 -0.41718,-0.381797 -0.73047,-0.509766 h -0.002 c -0.82212,-0.347178 -1.80241,-0.517578 -2.93945,-0.517578 z m 20.27734,0 c -0.6567,0 -1.26759,0.149493 -1.82422,0.449219 -0.4632,0.249416 -0.86861,0.667914 -1.26172,1.125 l 0.0762,-1.277344 h -0.14062 -5.22852 v 1.125 l 0.26368,0.01367 v -0.875 h 4.82617 l -0.0664,1.103515 0.1582,0.0078 c -0.0352,0.04316 -0.0806,0.05672 -0.11523,0.101562 l -0.0508,-0.002 -0.0312,0.535156 0.26367,-0.345703 c 0.0579,-0.07616 0.1301,-0.09904 0.18945,-0.169922 l -0.1582,-0.0078 0.008,-0.107422 0.26563,0.01367 c 0.35802,-0.402656 0.72091,-0.788121 1.1289,-1.007813 0.51824,-0.279049 1.08066,-0.417968 1.69727,-0.417968 0.75329,0 1.39086,0.201345 1.92969,0.605468 l 0.002,0.002 c 0.43945,0.318441 0.63796,0.697783 0.80859,1.085937 l 0.31836,0.01563 c -0.18139,-0.486475 -0.4583,-0.943978 -0.96875,-1.314453 -0.58564,-0.439235 -1.2887,-0.658203 -2.08984,-0.658203 z m 19.42187,0 c -1.16641,0 -2.2041,0.226729 -3.10937,0.683594 -0.84506,0.418886 -1.42929,1.0609 -1.83594,1.83789 l 0.33594,0.01563 c 0.38071,-0.664788 0.86301,-1.243625 1.61719,-1.617187 h 0.002 c 0.86413,-0.436102 1.85808,-0.65625 2.99023,-0.65625 1.38874,0 2.52245,0.26486 3.40625,0.787109 v 0.002 c 0.85208,0.491285 1.41348,1.157129 1.77344,1.955078 l 0.33985,0.01563 c -0.002,-0.0037 -3.7e-4,-0.01189 -0.002,-0.01563 -0.37482,-0.911492 -1.03903,-1.642415 -1.97656,-2.183593 -0.9352,-0.552619 -2.11856,-0.824219 -3.54102,-0.824219 z m 13.00977,0 c -1.33351,0 -2.47425,0.284391 -3.41602,0.861328 -0.93409,0.563823 -1.55861,1.216972 -1.85351,1.962891 -0.0277,0.0701 -0.0161,0.228677 -0.041,0.304687 l 0.25782,0.01172 c 0.0177,-0.05157 0.0103,-0.170714 0.0293,-0.21875 0.26734,-0.676216 0.84269,-1.289866 1.74414,-1.833985 0.89378,-0.54754 1.98351,-0.824218 3.2793,-0.824218 1.28768,0 2.37873,0.272599 3.28125,0.8125 0.90617,0.542082 1.49652,1.215481 1.79102,2.027343 0.0443,0.122013 0.0285,0.389216 0.0664,0.527344 l 0.26367,0.01172 c -0.0448,-0.170763 -0.0255,-0.478551 -0.0801,-0.628906 -0.31736,-0.874855 -0.95839,-1.598203 -1.9043,-2.164063 -0.94956,-0.56804 -2.09289,-0.849609 -3.41797,-0.849609 z m 19.53516,0 c -1.3566,0 -2.48322,0.262159 -3.36914,0.798828 -0.88106,0.533718 -1.49854,1.249324 -1.83985,2.136719 -0.10569,0.274806 -0.0841,0.791369 -0.15625,1.128906 l 0.25781,0.01172 c 0.0675,-0.307022 0.0496,-0.798114 0.14454,-1.044922 0.32015,-0.832395 0.89369,-1.497781 1.73242,-2.00586 0.83385,-0.505125 1.90816,-0.761718 3.23047,-0.761718 1.11118,0 2.05629,0.167682 2.83789,0.498047 h 0.002 c 0.7948,0.324407 1.39894,0.746887 1.82031,1.263671 0.42863,0.525667 0.71563,1.062878 0.86719,1.613282 v 0.002 c 0.0588,0.202701 0.052,0.66326 0.0898,0.951172 l 0.26368,0.01172 c -0.0401,-0.320715 -0.0321,-0.804125 -0.0996,-1.037109 -0.1628,-0.589752 -0.46881,-1.158578 -0.91602,-1.707031 -0.45474,-0.557703 -1.09887,-1.004828 -1.92383,-1.341797 h -0.002 c -0.82212,-0.347178 -1.80241,-0.517578 -2.93945,-0.517578 z m 25.63476,0 c -1.11326,0 -2.09733,0.170969 -2.95117,0.517578 -0.84736,0.347415 -1.46423,0.851293 -1.82812,1.509766 -0.36625,0.654893 -0.53711,1.639394 -0.53711,2.964843 0,0.11798 0.0573,0.194361 0.0625,0.308594 l 0.26757,0.01367 c -0.006,-0.120056 -0.0644,-0.197367 -0.0644,-0.322266 0,-1.302998 0.17612,-2.250593 0.50391,-2.835937 v -0.002 c 0.33064,-0.598297 0.88902,-1.061999 1.69531,-1.392578 0.81633,-0.331385 1.76548,-0.498047 2.85156,-0.498047 1.08005,0 1.99104,0.140075 2.73242,0.414062 h 0.002 c 0.75402,0.267555 1.3208,0.621162 1.70703,1.054688 v 0.002 c 0.40375,0.444121 0.63736,0.848142 0.71289,1.203125 v 0.002 c 0.0862,0.368335 0.13281,0.970998 0.13281,1.792969 v 0.822265 h -4.17578 v -0.759765 c 0,-0.382975 -0.01,-0.697037 -0.0332,-0.94336 -0.0233,-0.245486 -0.0568,-0.420616 -0.11524,-0.548828 -0.0538,-0.130539 -0.15434,-0.235939 -0.28515,-0.298828 -0.13256,-0.06373 -0.29176,-0.08984 -0.47852,-0.08984 -0.30996,0 -0.57258,0.113273 -0.73828,0.335938 -3.4e-4,4.34e-4 3.3e-4,0.0015 0,0.002 -0.16652,0.216361 -0.23828,0.522207 -0.23828,0.910156 0,0.510144 0.0311,0.889647 0.10351,1.152344 l 0.002,0.002 v 0.002 c 0.0223,0.06949 0.1315,0.141731 0.17187,0.210938 l 0.33594,0.01563 c -0.0763,-0.09998 -0.22736,-0.223012 -0.25391,-0.304688 -0.0594,-0.217144 -0.0937,-0.581332 -0.0937,-1.078125 0,-0.35541 0.0678,-0.602631 0.18164,-0.75 l 0.002,-0.002 c 0.1155,-0.156268 0.27605,-0.232422 0.52734,-0.232422 0.16051,0 0.28087,0.02483 0.36328,0.06445 0.0824,0.03962 0.12872,0.08841 0.15821,0.16211 l 0.002,0.0039 v 0.0039 c 0.0321,0.07012 0.0697,0.23161 0.0918,0.464844 0.0221,0.233234 0.0332,0.540267 0.0332,0.917969 v 0.798828 l 0.17969,0.0098 0.006,0.0059 -0.18555,-0.0098 v 0.220703 h 4.70508 l -4.44141,-0.207031 v -0.0059 l 4.44141,0.21289 v -0.132812 -0.955078 c 0,-0.82993 -0.0454,-1.440736 -0.14063,-1.84961 -0.0897,-0.421497 -0.35165,-0.86169 -0.77344,-1.326172 -0.42351,-0.47538 -1.032,-0.848913 -1.81445,-1.126953 -0.77997,-0.28825 -1.72145,-0.429687 -2.82422,-0.429687 z M 23.06163,24.66299 c 1.111184,0 2.056295,0.167682 2.83789,0.498047 h 0.002 c 0.794799,0.324407 1.398935,0.746887 1.820313,1.263671 0.42862,0.525667 0.715627,1.062878 0.867187,1.613282 v 0.002 c 0.158657,0.547365 0.244141,1.408795 0.244141,2.568359 v 4.03125 c 0,1.475577 -0.07591,2.556716 -0.220703,3.232422 -0.144186,0.664856 -0.453136,1.291228 -0.929688,1.880859 -0.472637,0.576019 -1.079448,1.003397 -1.828125,1.285157 -0.743134,0.274636 -1.602339,0.414062 -2.582031,0.414062 -1.097638,0 -2.023964,-0.119434 -2.775391,-0.353515 h -0.002 C 19.745425,40.856437 19.169887,40.499665 18.758895,40.03413 l -0.002,-0.002 C 18.34973,39.552487 18.057211,38.978507 17.879942,38.301662 17.70337,37.619452 17.612364,36.576063 17.612364,35.184474 v -4.216797 c 0,-1.520086 0.165034,-2.701745 0.486328,-3.537109 0.320152,-0.832395 0.89369,-1.497781 1.732422,-2.00586 0.833859,-0.505125 1.908166,-0.761718 3.230469,-0.761718 z m 30.732421,0 c 1.679283,0 2.92942,0.300762 3.75586,0.880859 l 0.002,0.002 c 0.838341,0.58039 1.327489,1.281852 1.494141,2.123047 0.168421,0.842108 0.257812,2.639992 0.257812,5.357422 v 8.126953 h -4.609422 v -1.330125 l -0.248047,-0.06055 c -0.296841,0.569614 -0.677266,0.989519 -1.142578,1.273438 -0.456232,0.275312 -1.005578,0.416015 -1.65625,0.416015 -0.851886,0 -1.628038,-0.236477 -2.34375,-0.710937 -0.67003,-0.457765 -1.033203,-1.483369 -1.033203,-3.125 v -1.353516 c 0,-1.218055 0.201734,-2.028655 0.550781,-2.429687 0.350985,-0.403259 1.306887,-0.934698 2.837891,-1.527344 0.824612,-0.323215 1.458009,-0.592499 1.904297,-0.8125 0.223144,-0.110001 0.399149,-0.207768 0.53125,-0.294922 0.132101,-0.08715 0.222966,-0.154754 0.27539,-0.255859 0.141255,-0.27242 0.189453,-0.732082 0.189453,-1.425782 10e-7,-0.865718 -0.05531,-1.422321 -0.214843,-1.732422 -0.141886,-0.298674 -0.414792,-0.470703 -0.75,-0.470703 -0.184019,0 -0.341325,0.03008 -0.472657,0.09961 -0.131331,0.06953 -0.231636,0.181081 -0.283203,0.320312 -0.05266,0.136924 -0.08051,0.334686 -0.101562,0.623047 -0.02105,0.288361 -0.03125,0.662174 -0.03125,1.123047 v 1.591797 h -4.435547 v -0.972656 c 0,-1.263284 0.145822,-2.227449 0.423828,-2.886719 0.283754,-0.662094 0.850322,-1.254004 1.71875,-1.773438 0.858057,-0.51323 1.983498,-0.77539 3.380859,-0.77539 z m 21.853516,0 c 1.388737,0 2.52049,0.26486 3.404297,0.787109 l 0.002,0.002 c 0.896688,0.517009 1.512786,1.19955 1.865234,2.056641 h 0.002 c 0.360784,0.849847 0.546875,2.072718 0.546875,3.658203 v 2.048828 h -6.486329 v 3.693359 c 0,0.750509 0.04099,1.226509 0.175782,1.496094 0.129938,0.259877 0.40137,0.396485 0.738281,0.396485 0.412932,0 0.732772,-0.17319 0.876953,-0.5 0.151522,-0.332418 0.208984,-0.892041 0.208984,-1.716797 v -2.03711 h 4.486329 v 1.083985 c 0,1.011255 -0.06745,1.785084 -0.195313,2.3125 v 0.002 c -0.118397,0.52095 -0.405781,1.087582 -0.869141,1.697265 -0.457956,0.602574 -1.038027,1.05362 -1.746093,1.359375 -0.696937,0.296077 -1.585787,0.449219 -2.664063,0.449219 -1.045585,0 -1.963379,-0.15197 -2.755859,-0.451172 -0.793382,-0.299542 -1.404255,-0.7045 -1.841797,-1.21289 l -0.002,-0.002 C 70.959206,39.262507 70.659678,38.694255 70.491363,38.077099 70.323191,37.45246 70.235504,36.525008 70.235504,35.307568 V 30.50874 c 0,-1.426759 0.19427,-2.541707 0.570312,-3.341797 0.376139,-0.8083 0.987957,-1.420857 1.84961,-1.847656 0.864129,-0.436102 1.860036,-0.65625 2.992187,-0.65625 z m -45.240234,0.0332 v 11.232422 c 0,1.415671 0.02816,2.360557 0.08789,2.855468 0.05987,0.487546 0.210686,0.958648 0.449219,1.410157 v 0.002 c 0.252838,0.462083 0.64316,0.832732 1.158203,1.107422 0.520597,0.277651 1.165679,0.412109 1.933594,0.412109 0.679647,0 1.286851,-0.139461 1.8125,-0.423828 v -0.002 c 0.427761,-0.234579 0.759274,-0.625163 1.074219,-1.039063 l -0.07422,1.167969 h 5.369141 V 24.696193 h -0.13086 -5.144531 v 11.207031 c 0,0.672643 -0.0089,1.208036 -0.02734,1.603516 -0.01844,0.395479 -0.05039,0.659511 -0.07813,0.751953 v 0.002 0.002 c -0.02512,0.09419 -0.07073,0.15302 -0.152344,0.199219 -0.08162,0.0462 -0.20757,0.07617 -0.378906,0.07617 -0.158409,0 -0.274446,-0.02903 -0.355469,-0.07422 -0.07968,-0.04444 -0.130028,-0.103082 -0.162109,-0.193359 v -0.002 C 35.76092,38.179823 35.72844,37.929362 35.71006,37.55366 35.69163,37.176943 35.68272,36.667776 35.68272,36.028269 V 24.696193 Z m 134.416017,0 v 3.423828 l 0.26562,0.01172 v -3.171875 h 4.89454 v 3.408203 l 0.26367,0.01172 v -3.683594 h -0.13086 z m 19.86914,0 v 4.378906 l 0.26367,0.01172 v -4.126953 h 4.7461 v 4.355468 l 0.26562,0.01172 v -4.630859 z m 6.53516,0 v 4.691406 l 0.26562,0.01367 V 24.95986 h 4.74609 v 4.669922 l 0.26368,0.01172 V 24.69619 h -0.13086 z M 90.762801,24.70791 c -0.385859,0.08302 -0.843893,0.0695 -1.1875,0.208984 h -0.002 c -0.847354,0.347415 -1.462279,0.851293 -1.826172,1.509766 -0.366254,0.654893 -0.537109,1.639394 -0.537109,2.964843 0,0.941397 0.1636,1.7638 0.496094,2.462891 v 0.002 c 0.347356,0.721433 1.26465,1.470463 2.746094,2.302734 0.875654,0.487393 1.555681,0.877837 2.039063,1.169922 0.48338,0.292086 0.78339,0.501388 0.8457,0.566407 0.0613,0.0677 0.12696,0.218783 0.16992,0.451171 0.0432,0.233604 0.0664,0.54596 0.0664,0.933594 0,0.557621 -0.0844,0.91478 -0.18359,1.044922 -0.10647,0.130597 -0.30754,0.212891 -0.64062,0.212891 -0.29421,0 -0.449584,-0.09621 -0.546879,-0.316407 -0.08798,-0.21753 -0.150391,-0.795503 -0.150391,-1.673828 v -1.173828 h -4.705078 v 0.925781 c 0,1.383417 0.166518,2.426787 0.521484,3.136719 0.355351,0.710702 1.004714,1.268221 1.925781,1.673828 0.930246,0.405925 2.041075,0.605469 3.328123,0.605469 1.16324,0 2.16254,-0.183266 2.99414,-0.556641 0.8397,-0.381679 1.44853,-0.927972 1.81055,-1.634765 v -0.002 h 0.002 c 0.36292,-0.717201 0.53516,-1.746772 0.53516,-3.097657 0,-1.215618 -0.23081,-2.157603 -0.70899,-2.818359 -0.47993,-0.663182 -1.44907,-1.335712 -2.91211,-2.050781 h -0.002 c -1.08588,-0.534793 -1.80825,-0.945384 -2.14453,-1.210938 l -0.002,-0.002 c -0.33418,-0.271053 -0.524678,-0.514642 -0.585935,-0.703125 -0.05943,-0.217141 -0.09375,-0.581333 -0.09375,-1.078125 0,-0.35541 0.06776,-0.602631 0.18164,-0.75 l 0.002,-0.002 c 0.115503,-0.156268 0.276055,-0.232422 0.527345,-0.232422 0.16051,0 0.28086,0.02483 0.36328,0.06445 0.0824,0.03962 0.12872,0.08841 0.1582,0.16211 l 0.002,0.0039 v 0.0039 c 0.0321,0.07012 0.0697,0.23161 0.0918,0.464844 0.0221,0.233234 0.0332,0.540267 0.0332,0.917969 v 1.02539 h 4.70508 v -0.132812 -0.955078 c 0,-0.82993 -0.0453,-1.440737 -0.14062,-1.84961 -0.0897,-0.421497 -0.35166,-0.86169 -0.77344,-1.326172 -0.38493,-0.432066 -0.96644,-0.756808 -1.64844,-1.02539 l -1.76758,-0.08203 c 0.51305,0.06842 1.10014,0.07713 1.50977,0.228515 h 0.002 c 0.75401,0.267555 1.3208,0.621162 1.70703,1.054688 v 0.002 c 0.40375,0.444121 0.63736,0.848142 0.71289,1.203125 v 0.002 c 0.0862,0.368336 0.13281,0.970998 0.13281,1.792969 v 0.822265 h -4.17578 v -0.759765 c 0,-0.382975 -0.01,-0.697037 -0.0332,-0.94336 -0.0233,-0.245486 -0.0568,-0.420617 -0.11523,-0.548828 -0.0538,-0.130538 -0.15435,-0.235939 -0.28516,-0.298828 -0.13256,-0.06373 -0.29176,-0.08984 -0.47852,-0.08984 -0.30996,0 -0.572573,0.113273 -0.738276,0.335938 -3.35e-4,4.34e-4 3.34e-4,0.0015 0,0.002 -0.166525,0.216361 -0.238281,0.522207 -0.238281,0.910156 0,0.510145 0.03105,0.889643 0.103515,1.152344 l 0.002,0.002 v 0.002 c 0.08799,0.273735 0.318304,0.542645 0.675782,0.832031 0.37502,0.296529 1.10081,0.705183 2.19531,1.244141 1.44628,0.706705 2.38705,1.373507 2.81641,1.966797 0.43132,0.596014 0.65625,1.481897 0.65625,2.664062 0,1.32802 -0.17425,2.323193 -0.50586,2.978516 -0.33252,0.649197 -0.88814,1.151212 -1.68555,1.513672 -0.78896,0.354229 -1.74944,0.535156 -2.88476,0.535156 -1.259565,0 -2.331944,-0.196161 -3.220707,-0.583984 -0.881407,-0.388143 -1.474232,-0.905495 -1.796875,-1.550781 -0.323028,-0.646056 -0.49414,-1.655945 -0.49414,-3.017579 v -0.660285 h 4.17568 v 0.908203 c 0,0.890057 0.04504,1.463173 0.171875,1.775391 v 0.002 c 0.134299,0.30697 0.425007,0.476563 0.791017,0.476563 0.37707,0 0.67277,-0.09257 0.84765,-0.308594 v -0.002 l 0.002,-0.002 c 0.18148,-0.23485 0.23829,-0.627613 0.23829,-1.208985 0,-0.397846 -0.0226,-0.724065 -0.0703,-0.982422 -0.0478,-0.258356 -0.11796,-0.450766 -0.23829,-0.582031 v -0.002 h -0.002 c -0.12786,-0.133325 -0.40835,-0.316276 -0.89648,-0.611234 -0.488137,-0.294958 -1.171622,-0.685571 -2.04883,-1.173828 -1.461401,-0.821012 -2.336823,-1.569639 -2.634766,-2.1875 -0.312426,-0.656897 -0.472656,-1.438924 -0.472656,-2.34961 0,-1.302998 0.178067,-2.250593 0.505859,-2.835937 v -0.002 c 0.330638,-0.598297 0.889022,-1.061999 1.695313,-1.392578 0.650806,-0.264189 1.451513,-0.342475 2.273437,-0.396485 z m -21.759765,0.0078 v 5.5 c -0.842299,0.01457 -1.519455,0.113913 -1.955078,0.365234 -0.455892,0.263016 -0.750551,0.646032 -0.857422,1.126954 -0.106856,0.471947 -0.150391,1.48157 -0.150391,3.080078 V 41.15321 H 61.294051 V 24.959865 h 4.732422 l -0.185547,2.013672 0.251954,0.06836 c 0.685702,-1.457119 1.655525,-2.189015 2.910156,-2.326172 z m -38.332031,0.244141 h 4.746093 V 36.02821 c 0,0.642067 0.01052,1.15315 0.0293,1.537109 0.01878,0.38396 0.04275,0.631454 0.08984,0.783204 v 0.002 0.002 c 0.05064,0.146869 0.151205,0.267093 0.285156,0.341797 0.133952,0.0747 0.295518,0.107422 0.484375,0.107422 0.200734,0 0.372276,-0.03155 0.509766,-0.109375 0.13749,-0.07782 0.234362,-0.207471 0.27539,-0.361329 0.04624,-0.155836 0.07117,-0.411998 0.08984,-0.8125 0.01877,-0.402403 0.02734,-0.940156 0.02734,-1.615234 V 24.959865 h 4.746094 v 16.193359 h -4.82421 l 0.07813,-1.222656 -0.244141,-0.07813 c -0.336517,0.536825 -0.749719,0.935534 -1.240234,1.205078 -0.483074,0.261335 -1.044233,0.394531 -1.6875,0.394531 -0.736901,0 -1.338957,-0.129345 -1.810547,-0.380859 -0.477144,-0.254477 -0.822109,-0.587606 -1.048828,-1.001953 -0.223956,-0.424388 -0.364116,-0.861987 -0.419922,-1.316407 -0.05603,-0.464202 -0.08594,-1.412158 -0.08594,-2.824218 z m 71.044925,0.261718 c -0.86592,0.53184 -1.48465,1.235482 -1.822269,2.113282 -0.34016,0.884425 -0.50391,2.093657 -0.50391,3.632812 v 4.216797 c 0,1.40307 0.0901,2.460206 0.27735,3.183594 0.18629,0.7113 0.496309,1.325737 0.931639,1.83789 v 0.002 h 0.002 c 0.44846,0.508829 1.07122,0.888964 1.85743,1.142578 0.78618,0.245154 1.73798,0.365234 2.85546,0.365234 1.00468,0 1.89756,-0.142085 2.67579,-0.429687 0.78829,-0.296673 1.43864,-0.753648 1.9414,-1.367188 0.4991,-0.617528 0.827,-1.282564 0.98047,-1.990234 0.15286,-0.713356 0.22656,-1.804617 0.22656,-3.289063 v -4.03125 c 0,-1.171215 -0.0801,-2.046998 -0.25195,-2.640625 v -0.002 c -0.16275,-0.590051 -0.47056,-1.158316 -0.91797,-1.707031 -0.23688,-0.290512 -0.66357,-0.469011 -1.00195,-0.699219 l -0.48047,-0.02148 c 0.47836,0.26837 0.98165,0.524084 1.27734,0.886718 0.42862,0.525667 0.71563,1.062877 0.86719,1.613282 v 0.002 c 0.15865,0.547365 0.24414,1.408795 0.24414,2.568359 v 4.03125 c 0,1.475577 -0.0759,2.556716 -0.2207,3.232422 -0.14407,0.6643 -0.45186,1.289708 -0.92774,1.878906 -0.47289,0.577083 -1.08049,1.005007 -1.83007,1.28711 -0.74277,0.274234 -1.60307,0.414062 -2.58204,0.414062 -1.09839,0 -2.02368,-0.119112 -2.77539,-0.353515 -0.75069,-0.24216 -1.32695,-0.598539 -1.73828,-1.064454 l -0.002,-0.002 c -0.40717,-0.479643 -0.69773,-1.053623 -0.874999,-1.730468 -0.17658,-0.68221 -0.26954,-1.725599 -0.26954,-3.117188 v -4.216797 c 0,-1.520086 0.16699,-2.701745 0.488289,-3.537109 0.32015,-0.832395 0.89173,-1.497781 1.73047,-2.00586 0.17948,-0.108725 0.49347,-0.07841 0.69531,-0.164062 z m 15.28515,0.714844 v 17.826172 h 5.27539 v -3.611328 c 0.38944,0.452173 0.79345,0.863417 1.25391,1.115234 0.54825,0.299826 1.14642,0.449219 1.78711,0.449219 0.79832,0 1.49069,-0.191541 2.06055,-0.580078 0.57587,-0.395378 0.96083,-0.930599 1.14257,-1.585938 0.18943,-0.66298 0.2793,-1.73442 0.2793,-3.236328 v -6.933593 c 0,-1.311124 -0.0679,-2.240151 -0.21484,-2.810547 -0.009,-0.03611 -0.0592,-0.05821 -0.0703,-0.09375 l -0.31836,-0.01563 c 0.0237,0.06395 0.11388,0.109887 0.13086,0.175781 0.1342,0.521009 0.20703,1.442507 0.20703,2.744141 v 6.933593 c 0,1.491188 -0.0932,2.551784 -0.26758,3.16211 v 0.002 c -0.16584,0.600176 -0.50781,1.074706 -1.03906,1.439453 -0.52156,0.355602 -1.15406,0.535156 -1.91016,0.535156 -0.59953,0 -1.15008,-0.139019 -1.66016,-0.417969 -0.51054,-0.279204 -0.97907,-0.695229 -1.4082,-1.253906 l -0.23828,-0.308594 v 4.027344 h -4.74609 V 25.948146 Z m 13.1836,0.617188 v 14.865234 h 5.27539 v -6.630859 c 0,-1.593025 0.0529,-2.616998 0.14453,-3.021485 v -0.002 c 0.0916,-0.412046 0.32647,-0.721999 0.73047,-0.955078 0.39466,-0.227686 1.05118,-0.355469 1.95703,-0.355469 h 0.13086 v -3.515625 l -0.26367,-0.01172 v 3.289062 c -0.8423,0.01457 -1.51945,0.113914 -1.95508,0.365234 -0.45589,0.263016 -0.75055,0.646033 -0.85742,1.126954 -0.10685,0.471945 -0.15235,1.48157 -0.15235,3.080078 v 6.365234 h -4.74609 V 26.565333 Z m 9.58984,0.449218 c -0.0111,0.02275 -0.042,0.02969 -0.0527,0.05273 -0.40073,0.853412 -0.59571,2.00334 -0.59571,3.453125 v 4.798828 c 0,1.229954 0.0865,2.172687 0.26563,2.837891 0.17872,0.655306 0.49758,1.261798 0.95508,1.8125 h 0.002 c 0.47185,0.549065 1.12496,0.979077 1.95117,1.291015 0.82809,0.312647 1.77853,0.466797 2.84961,0.466797 1.10377,0 2.02607,-0.153395 2.76758,-0.46875 h 0.002 c 0.74714,-0.322629 1.36499,-0.805701 1.84961,-1.443359 0.4786,-0.62973 0.78608,-1.227088 0.91602,-1.796875 0.13672,-0.56399 0.20312,-1.352273 0.20312,-2.375 v -1.347657 h -5.01562 v 2.300782 c 0,0.811427 -0.0729,1.360928 -0.18555,1.607422 v 0.002 c -0.10387,0.235428 -0.28897,0.34375 -0.63672,0.34375 -0.27493,0 -0.41692,-0.07993 -0.50195,-0.25 -0.0802,-0.160363 -0.14649,-0.641137 -0.14649,-1.378907 v -3.427734 h 6.48633 v -0.13284 -2.181641 c 0,-1.566868 -0.19011,-2.772371 -0.55469,-3.669922 l -0.28125,-0.01367 c 0.004,0.01061 0.0191,0.01473 0.0234,0.02539 0.36078,0.849847 0.54883,2.072718 0.54883,3.658203 v 2.048828 h -6.48828 v 3.693359 c 0,0.750509 0.041,1.226509 0.17578,1.496094 0.12994,0.259876 0.40137,0.396485 0.73828,0.396485 0.41185,0 0.73222,-0.172902 0.87695,-0.498047 0.1519,-0.332282 0.21094,-0.89307 0.21094,-1.71875 v -2.03711 h 4.48633 v 1.083985 c 0,1.011254 -0.0674,1.785084 -0.19531,2.3125 v 0.002 c -0.1184,0.520949 -0.40578,1.087582 -0.86914,1.697265 -0.45796,0.602574 -1.03803,1.05362 -1.7461,1.359375 -0.69716,0.296495 -1.58501,0.449219 -2.66406,0.449219 -1.04558,0 -1.96338,-0.15197 -2.75586,-0.451172 -0.79338,-0.299542 -1.40425,-0.7045 -1.8418,-1.21289 l -0.002,-0.002 c -0.43449,-0.523577 -0.73403,-1.091828 -0.90234,-1.708985 -0.16817,-0.624639 -0.25586,-1.552091 -0.25586,-2.769531 v -4.798828 c 0,-1.426759 0.19427,-2.541707 0.57031,-3.341797 0.0302,-0.06494 0.11518,-0.08603 0.14844,-0.148438 z M 23.235458,27.31338 c -0.330729,0 -0.597638,0.144001 -0.716797,0.41211 -0.0634,0.137369 -0.09763,0.328523 -0.123047,0.599609 -0.02541,0.271086 -0.03711,0.618696 -0.03711,1.042969 v 7.427734 c 0,0.782843 0.03968,1.289732 0.158203,1.576172 v 0.002 h 0.002 c 0.117563,0.274313 0.37846,0.427735 0.703125,0.427735 0.328815,0 0.59159,-0.140734 0.703125,-0.402344 0.121702,-0.265702 0.162109,-0.726101 0.162109,-1.441406 v -7.589844 c 0,-0.424057 -0.01191,-0.770459 -0.03516,-1.041016 -0.02329,-0.270603 -0.05575,-0.46163 -0.113323,-0.597703 -0.110385,-0.268884 -0.373076,-0.416016 -0.703125,-0.416016 z m 52.646484,0 c -0.187282,0 -0.347496,0.02726 -0.480469,0.09375 -0.132972,0.06649 -0.23463,0.176054 -0.287109,0.3125 -0.05366,0.134937 -0.08057,0.331617 -0.101563,0.619141 -0.02105,0.288408 -0.03125,0.663917 -0.03125,1.128906 v 1.333985 h 1.728516 v -0.13086 -1.203125 c 0,-0.856336 -0.03674,-1.401322 -0.144531,-1.695312 C 76.45942,27.482956 76.201971,27.31338 75.881942,27.31338 Z m 29.394528,0 c -0.33004,0 -0.59532,0.145053 -0.71484,0.41211 -0.0634,0.137369 -0.0996,0.328523 -0.125,0.599609 -0.0254,0.271086 -0.0371,0.618696 -0.0371,1.042969 v 7.427734 c 0,0.782843 0.0397,1.289731 0.1582,1.576172 l 0.002,0.002 c 0.11756,0.274312 0.37846,0.427735 0.70312,0.427735 0.32882,0 0.59159,-0.140735 0.70313,-0.402344 0.1217,-0.265703 0.16211,-0.726101 0.16211,-1.441406 v -7.589844 c 0,-0.424057 -0.0119,-0.770459 -0.0352,-1.041016 -0.0233,-0.270556 -0.0538,-0.461582 -0.11133,-0.597656 -0.10997,-0.269943 -0.37434,-0.416016 -0.70508,-0.416016 z m 17.64844,0 c -0.3638,0 -0.64953,0.159971 -0.76758,0.455078 l -0.002,0.002 v 0.002 c -0.10976,0.299343 -0.14453,0.888686 -0.14453,1.84375 v 6.820312 c 0,0.498298 0.0119,0.905054 0.0371,1.220703 0.0252,0.315649 0.0602,0.537193 0.12109,0.689453 0.11805,0.295107 0.40378,0.455079 0.76758,0.455079 0.17649,0 0.32917,-0.03074 0.45508,-0.101563 0.1259,-0.07082 0.21935,-0.185405 0.26562,-0.324219 0.0999,-0.281863 0.13086,-0.824536 0.13086,-1.703125 v -7.05664 c 0,-0.510109 -0.008,-0.920057 -0.0273,-1.232422 -0.0189,-0.312365 -0.044,-0.522201 -0.0918,-0.660156 -0.0474,-0.136827 -0.14382,-0.247054 -0.27343,-0.314454 -0.12962,-0.0674 -0.28723,-0.0957 -0.47071,-0.0957 z m 22.11328,0 c -0.18728,0 -0.34749,0.02726 -0.48047,0.09375 -0.13211,0.06606 -0.23433,0.17533 -0.28711,0.310547 -0.054,0.134978 -0.0805,0.332687 -0.10156,0.621094 -0.0211,0.288407 -0.0332,0.663917 -0.0332,1.128906 v 1.333985 h 1.72851 v -0.13086 -1.203125 c 0,-0.856335 -0.0367,-1.401324 -0.14453,-1.695312 -0.10612,-0.289408 -0.36161,-0.458985 -0.68164,-0.458985 z m 12.94727,0 c -0.32089,0 -0.58024,0.132826 -0.70117,0.384766 -0.005,0.01055 -0.001,0.04738 -0.006,0.05859 l 0.32422,0.01563 c 0.0806,-0.108703 0.16956,-0.195313 0.38281,-0.195313 0.20909,0 0.30445,0.100247 0.39258,0.232422 l 0.33398,0.01563 c -0.006,-0.01569 -0.003,-0.05953 -0.01,-0.07422 -0.12562,-0.280216 -0.39088,-0.4375 -0.7168,-0.4375 z m 19.53515,0 c -0.33073,0 -0.59763,0.144001 -0.71679,0.41211 -0.0634,0.137368 -0.0976,0.328524 -0.12305,0.599609 -0.009,0.09443 -0.008,0.250469 -0.0137,0.363281 l 0.26367,0.01367 c 0.006,-0.108596 0.005,-0.26239 0.0137,-0.351562 0.0242,-0.258081 0.0638,-0.43802 0.0996,-0.515625 l 0.002,-0.002 c 0.0793,-0.178376 0.21002,-0.25586 0.4746,-0.25586 0.26458,0 0.38706,0.07736 0.45899,0.253906 h 0.002 c 0.0334,0.0789 0.0696,0.260922 0.0918,0.519532 0.009,0.103249 0.008,0.277157 0.0137,0.40625 l 0.26563,0.01367 c -0.006,-0.142829 -0.006,-0.328127 -0.0156,-0.44336 -0.0234,-0.270505 -0.0558,-0.461532 -0.11342,-0.597605 -0.11039,-0.268883 -0.37308,-0.416016 -0.70313,-0.416016 z M 23.235458,27.577052 c 0.264583,0 0.387059,0.07736 0.458984,0.253906 h 0.002 c 0.03338,0.0789 0.06957,0.260922 0.0918,0.519532 0.02222,0.258609 0.0332,0.598276 0.0332,1.017578 v 7.589844 c 0,0.704913 -0.06076,1.1694 -0.136719,1.333984 v 0.002 l -0.002,0.002 c -0.07077,0.167279 -0.195129,0.242188 -0.460937,0.242188 -0.25411,0 -0.380063,-0.07887 -0.460938,-0.267578 -0.07975,-0.193694 -0.138671,-0.704038 -0.138672,-1.47461 v -7.427734 c 0,-0.419085 0.01291,-0.759498 0.03711,-1.017578 0.02419,-0.258081 0.06379,-0.438021 0.09961,-0.515625 l 0.002,-0.002 c 0.07928,-0.178377 0.210027,-0.25586 0.47461,-0.25586 z m 52.646484,0 c 0.242211,0 0.35781,0.07847 0.433594,0.285156 0.0741,0.202103 0.128906,0.758552 0.128906,1.605469 v 1.070313 h -1.199219 v -1.070313 c 0,-0.461051 0.01096,-0.833362 0.03125,-1.111328 0.02029,-0.277965 0.05529,-0.467334 0.08398,-0.539062 v -0.002 c 0.0302,-0.07853 0.07815,-0.130874 0.160156,-0.171875 0.082,-0.041 0.201344,-0.06641 0.361328,-0.06641 z m 29.394528,0 c 0.26459,0 0.38902,0.07737 0.46094,0.253906 0.0334,0.0789 0.0696,0.260922 0.0918,0.519532 0.0222,0.258609 0.0332,0.598276 0.0332,1.017578 v 7.589844 c 0,0.704913 -0.0607,1.1694 -0.13672,1.333984 v 0.002 0.002 c -0.0708,0.16728 -0.19708,0.242188 -0.46289,0.242188 -0.25283,0 -0.37806,-0.07896 -0.45898,-0.265625 -0.0799,-0.193116 -0.13867,-0.704979 -0.13867,-1.476563 v -7.427734 c 0,-0.419085 0.011,-0.759498 0.0352,-1.017578 0.0242,-0.25808 0.0657,-0.438021 0.10157,-0.515625 v -0.002 c 0.0793,-0.178377 0.21002,-0.25586 0.4746,-0.25586 z m 17.64844,0 c 0.15552,0 0.27057,0.02632 0.34766,0.06641 0.0771,0.04009 0.11943,0.08982 0.14648,0.167969 0.0267,0.07702 0.0598,0.284273 0.0781,0.587891 0.0183,0.303618 0.0273,0.709914 0.0273,1.216797 v 7.05664 c 0,0.872271 -0.0523,1.435475 -0.11719,1.617188 v 0.002 c -0.0281,0.08443 -0.072,0.136936 -0.14453,0.177734 -0.0725,0.0408 -0.1802,0.06836 -0.32617,0.06836 -0.29765,0 -0.44109,-0.08808 -0.52148,-0.289063 -0.0383,-0.09579 -0.0792,-0.308814 -0.10352,-0.613281 -0.0244,-0.304467 -0.0352,-0.70533 -0.0352,-1.199219 v -6.820312 c 0,-0.944531 0.055,-1.551863 0.12696,-1.75 0.0804,-0.200987 0.22383,-0.289063 0.52148,-0.289063 z m 22.11328,0 c 0.24221,0 0.35781,0.07847 0.4336,0.285156 0.0741,0.202105 0.1289,0.758552 0.1289,1.605469 v 1.070313 h -1.19922 v -1.070313 c 0,-0.461051 0.011,-0.833362 0.0312,-1.111328 0.0203,-0.277966 0.0553,-0.467334 0.084,-0.539062 v -0.002 c 0.0302,-0.07853 0.0762,-0.130874 0.1582,-0.171875 0.082,-0.041 0.2033,-0.06641 0.36328,-0.06641 z m 7.45313,0.01953 c -0.2268,0.720259 -0.37891,1.595112 -0.37891,2.837891 v 4.675781 c 0,1.613354 0.16683,2.865821 0.51563,3.767578 l 0.002,0.002 c 0.35754,0.893844 0.96699,1.59845 1.81641,2.099609 0.85513,0.495976 1.99891,0.736328 3.42773,0.736328 1.12176,0 2.07087,-0.175584 2.8457,-0.533203 h 0.002 c 0.7722,-0.364883 1.39942,-0.903022 1.875,-1.607422 0.4797,-0.706932 0.76737,-1.400185 0.85351,-2.078125 v -0.002 c 0.0924,-0.672615 0.14211,-1.663771 0.15039,-2.980469 v -0.132812 h -4.73047 v 2.091797 c 0,0.845204 -0.0678,1.421185 -0.17578,1.6875 v 0.002 h -0.002 c -0.10063,0.265946 -0.25744,0.375 -0.55664,0.375 -0.24428,0 -0.4065,-0.105307 -0.53906,-0.361328 -0.13327,-0.266541 -0.21094,-0.691715 -0.21094,-1.267579 v -7.765625 c 0,-0.702781 0.0628,-1.15101 0.13476,-1.310546 l -0.25,-0.01172 c -0.10104,0.270001 -0.14843,0.6586 -0.14843,1.322265 v 7.765625 c 0,0.598223 0.0719,1.055995 0.23633,1.384766 l 0.002,0.002 c 0.16477,0.320401 0.4419,0.50586 0.77539,0.50586 0.37879,0 0.6738,-0.199021 0.80469,-0.544922 0.13941,-0.345809 0.19531,-0.927009 0.19531,-1.783203 v -1.826172 h 4.19336 c -0.0115,1.224453 -0.0553,2.191538 -0.14063,2.8125 v 0.002 c -0.0795,0.627919 -0.34806,1.283284 -0.81054,1.964844 -0.44983,0.666713 -1.03663,1.169696 -1.76758,1.515625 -0.72997,0.336911 -1.64221,0.509765 -2.73633,0.509765 -1.39811,0 -2.49457,-0.238551 -3.29297,-0.701172 -0.80422,-0.47449 -1.36808,-1.126268 -1.70508,-1.96875 -0.3292,-0.851106 -0.5,-2.07716 -0.5,-3.671875 v -4.675781 c 0,-1.260351 0.14931,-2.14577 0.37305,-2.826172 z m 5.97265,0.279297 c 0.0855,0.191677 0.14649,0.621262 0.14649,1.267578 v 2.03125 h 4.99023 v -0.132811 c 0,-1.261161 -0.17316,-2.135391 -0.3789,-2.943359 l -0.26368,-0.01172 c 0.19899,0.748631 0.35018,1.617498 0.35938,2.822265 h -4.44336 v -1.765625 c 0,-0.602107 -0.0536,-0.976135 -0.1543,-1.255859 z m 6.35938,0.298828 v 13.244141 h 5.42383 V 28.428615 l -0.26367,-0.01367 v 12.738281 h -4.89454 V 28.186427 Z m 7.15039,0.333985 c -0.15426,0.740766 -0.3418,1.417193 -0.3418,2.458984 v 4.216797 c 0,1.40307 0.0901,2.460206 0.27735,3.183594 0.18629,0.7113 0.49826,1.325737 0.93359,1.83789 v 0.002 h 0.002 c 0.44846,0.508829 1.06927,0.888964 1.85547,1.142578 h 0.002 c 0.78618,0.245154 1.73798,0.365234 2.85546,0.365234 1.00469,0 1.89562,-0.142084 2.67383,-0.429687 h 0.002 c 0.7883,-0.296673 1.43668,-0.753647 1.93945,-1.367188 h 0.002 c 0.4991,-0.617528 0.827,-1.282564 0.98047,-1.990234 0.15286,-0.713356 0.22656,-1.804617 0.22656,-3.289063 v -4.03125 c 0,-0.697325 -0.0909,-1.081766 -0.15039,-1.572265 l -0.26367,-0.01367 c 0.0619,0.484706 0.15039,0.869933 0.15039,1.585937 v 4.03125 c 0,1.475577 -0.0759,2.556716 -0.2207,3.232422 -0.14419,0.664855 -0.45314,1.291228 -0.92969,1.880859 -0.47264,0.576019 -1.07945,1.003397 -1.82812,1.285157 -0.74313,0.274636 -1.60234,0.414062 -2.58204,0.414062 -1.09763,0 -2.02396,-0.119434 -2.77539,-0.353515 h -0.002 c -0.7498,-0.242147 -1.32534,-0.598919 -1.73633,-1.064454 l -0.002,-0.002 c -0.40717,-0.479643 -0.69969,-1.053623 -0.87695,-1.730468 -0.17657,-0.68221 -0.26758,-1.725599 -0.26758,-3.117188 v -4.216797 c 0,-1.05169 0.18057,-1.722269 0.33594,-2.447265 z m 4.69336,0.21875 c -0.009,0.202435 -0.0234,0.380013 -0.0234,0.640625 v 7.427734 c 0,0.782843 0.0397,1.289733 0.1582,1.576172 v 0.002 h 0.002 c 0.11756,0.274312 0.37846,0.427735 0.70312,0.427735 0.32882,0 0.5916,-0.140732 0.70313,-0.402344 0.1217,-0.265703 0.16211,-0.726101 0.16211,-1.441406 v -7.589844 c 0,-0.228347 -0.0129,-0.377031 -0.0195,-0.560547 l -0.26563,-0.01172 c 0.007,0.185324 0.0195,0.336448 0.0195,0.572266 v 7.589844 c 0,0.704913 -0.0608,1.1694 -0.13672,1.333984 v 0.002 l -0.002,0.002 c -0.0708,0.167278 -0.19512,0.242188 -0.46094,0.242188 -0.25411,0 -0.38006,-0.07887 -0.46093,-0.267578 -0.0797,-0.193695 -0.13868,-0.704037 -0.13868,-1.47461 v -7.427734 c 0,-0.258217 0.0142,-0.429481 0.0234,-0.626953 z m 8.02539,0.376953 v 6.824219 c 0,1.41567 0.0282,2.36056 0.0879,2.855468 0.0599,0.487546 0.21069,0.958648 0.44922,1.410157 v 0.002 c 0.25284,0.462083 0.64316,0.832732 1.1582,1.107422 0.5206,0.277651 1.16568,0.412109 1.9336,0.412109 0.67965,0 1.28685,-0.139461 1.8125,-0.423828 v -0.002 c 0.42776,-0.234579 0.75927,-0.625163 1.07421,-1.039063 l -0.0742,1.167969 h 5.36914 V 29.65713 l -0.26368,-0.01367 v 11.509766 h -4.82421 l 0.0781,-1.222656 -0.24414,-0.07813 c -0.33652,0.536825 -0.74972,0.935534 -1.24023,1.205078 -0.48308,0.261335 -1.04423,0.394531 -1.6875,0.394531 -0.7369,0 -1.33896,-0.129345 -1.81055,-0.380859 -0.47714,-0.254477 -0.82211,-0.587605 -1.04883,-1.001953 -0.22395,-0.424388 -0.36411,-0.861986 -0.41992,-1.316407 -0.056,-0.464205 -0.0859,-1.412157 -0.0859,-2.824218 v -6.8125 z m 5.00977,0.234375 v 6.689453 c 0,0.642067 0.0105,1.15315 0.0293,1.537109 0.0188,0.38396 0.0427,0.631454 0.0898,0.783204 v 0.002 0.002 c 0.0506,0.146869 0.1512,0.267093 0.28515,0.341797 0.13395,0.0747 0.29552,0.107422 0.48438,0.107422 0.20073,0 0.37227,-0.03155 0.50976,-0.109375 0.13749,-0.07782 0.23436,-0.207471 0.27539,-0.361329 0.0462,-0.155835 0.0712,-0.411998 0.0898,-0.8125 0.0188,-0.402403 0.0273,-0.940156 0.0273,-1.615234 v -6.480469 l -0.26562,-0.01367 v 6.494141 c 0,0.672643 -0.009,1.208036 -0.0273,1.603516 -0.0184,0.395479 -0.0504,0.659511 -0.0781,0.751953 v 0.002 0.002 c -0.0251,0.09419 -0.0707,0.15302 -0.15235,0.199219 -0.0816,0.0462 -0.20756,0.07617 -0.3789,0.07617 -0.15841,0 -0.27445,-0.02903 -0.35547,-0.07422 -0.0797,-0.04444 -0.13003,-0.103082 -0.16211,-0.193359 v -0.002 c -0.0273,-0.08868 -0.0598,-0.33914 -0.0781,-0.714843 -0.0184,-0.376717 -0.0273,-0.885884 -0.0273,-1.525391 V 29.35063 Z m 8.02734,0.375 c 0.0374,0.791123 0.14264,1.532984 0.43164,2.140625 v 0.002 c 0.34736,0.721433 1.26465,1.470463 2.74609,2.302734 0.87566,0.487393 1.55764,0.877837 2.04102,1.169922 0.48338,0.292086 0.78144,0.501386 0.84375,0.566407 0.0613,0.0677 0.12696,0.218783 0.16992,0.451171 0.0432,0.233604 0.0664,0.54596 0.0664,0.933594 0,0.557621 -0.0844,0.91478 -0.1836,1.044922 -0.10646,0.130597 -0.30754,0.212891 -0.64062,0.212891 -0.29546,0 -0.44967,-0.09616 -0.54688,-0.31836 -0.0878,-0.218111 -0.15039,-0.794566 -0.15039,-1.671875 v -1.173828 h -4.70508 v 0.925781 c 0,1.383417 0.16652,2.426787 0.52149,3.136719 0.35535,0.710702 1.00471,1.268221 1.92578,1.673828 0.93025,0.405925 2.04108,0.605469 3.32813,0.605469 1.16323,0 2.16253,-0.183266 2.99414,-0.556641 0.83969,-0.381679 1.44853,-0.927972 1.81054,-1.634765 l 0.002,-0.002 c 0.36292,-0.717201 0.53515,-1.746772 0.53515,-3.097657 0,-1.215618 -0.22885,-2.157603 -0.70703,-2.818359 -0.48015,-0.663479 -1.44993,-1.335352 -2.91406,-2.050781 -1.08831,-0.535911 -1.81044,-0.947181 -2.14649,-1.212891 -0.18648,-0.151122 -0.22834,-0.261514 -0.32812,-0.390625 l -0.33594,-0.01563 c 0.11909,0.200963 0.23457,0.399989 0.49805,0.613281 h 0.002 c 0.37502,0.296529 1.09886,0.705183 2.19336,1.244141 1.44628,0.706705 2.38705,1.373507 2.81641,1.966797 0.43132,0.596014 0.65625,1.481897 0.65625,2.664062 0,1.32802 -0.17425,2.323193 -0.50586,2.978516 -0.33252,0.649197 -0.88814,1.151212 -1.68555,1.513672 -0.78896,0.354229 -1.74944,0.535156 -2.88476,0.535156 -1.25957,0 -2.33194,-0.196161 -3.22071,-0.583984 -0.88141,-0.388143 -1.47228,-0.905496 -1.79492,-1.550781 -0.32303,-0.646056 -0.49609,-1.655945 -0.49609,-3.017579 v -0.660156 h 4.17578 v 0.908203 c 0,0.890057 0.045,1.463173 0.17187,1.775391 v 0.002 c 0.1343,0.306971 0.42501,0.476563 0.79102,0.476563 0.37707,0 0.67277,-0.09257 0.84765,-0.308594 l 0.002,-0.002 v -0.002 c 0.18147,-0.23485 0.23828,-0.627613 0.23828,-1.208985 0,-0.397846 -0.0226,-0.724066 -0.0703,-0.982422 -0.0478,-0.258356 -0.11601,-0.450766 -0.23633,-0.582031 l -0.002,-0.002 c -0.12787,-0.133417 -0.41031,-0.31637 -0.89844,-0.611328 -0.48779,-0.294747 -1.17058,-0.68606 -2.04688,-1.173828 h -0.002 c -1.46024,-0.820587 -2.33695,-1.56991 -2.63477,-2.1875 -0.26777,-0.563025 -0.36556,-1.26466 -0.40429,-2.013672 z m -143.169924,3.486329 -0.210937,0.154297 c -0.810685,0.593388 -1.297753,1.086619 -1.449219,1.541016 v 0.002 c -0.131044,0.419342 -0.193359,0.99851 -0.193359,1.75 0,0.857193 0.04243,1.404397 0.171875,1.703125 l 0.002,0.002 c 0.136173,0.291798 0.425261,0.449219 0.789062,0.449219 0.34015,0 0.609623,-0.118738 0.726563,-0.361329 4.6e-5,-9.2e-5 0.0019,9.3e-5 0.002,0 0.06511,-0.131888 0.09777,-0.314945 0.123047,-0.576171 0.02546,-0.263103 0.03906,-0.601522 0.03906,-1.017579 z m -0.265625,0.587891 v 3.058593 c 0,0.410766 -0.01296,0.742661 -0.03711,0.992188 -0.02415,0.249527 -0.06448,0.419978 -0.09766,0.486328 v 0.002 c -0.06537,0.136679 -0.202733,0.210938 -0.490235,0.210938 -0.296835,0 -0.451461,-0.09376 -0.546875,-0.296875 -0.08522,-0.198609 -0.15039,-0.749739 -0.15039,-1.59375 0,-0.73594 0.06294,-1.295518 0.179687,-1.669922 v -0.002 c 0.09577,-0.286289 0.564535,-0.722837 1.142578,-1.1875 z m -44.003907,1.785156 v 0.132812 2.232422 2.082032 0.751953 l 1.029297,-0.330078 -0.443359,-0.71875 0.296875,-0.480469 -0.283203,-0.496094 0.585937,-0.511719 -0.339844,-0.808593 -0.265625,-0.384766 0.408204,-0.966797 -0.07617,-0.0625 C 11.03355,35.873418 10.888051,35.768048 10.762801,35.69424 10.63755,35.62043 10.534578,35.573146 10.422957,35.573146 Z m 0.265625,0.318359 c 0.02925,0.01269 0.03488,0.0073 0.07227,0.0293 0.08583,0.05058 0.205344,0.141187 0.328125,0.238281 l -0.384766,0.914063 0.330078,0.482422 0.25586,0.605469 -0.601563,0.52539 v -0.748047 z m 0,2.806641 0.308594,0.539062 -0.298828,0.486329 0.351562,0.570312 -0.361328,0.115234 v -0.388671 z"
       id="path2"
       inkscape:export-filename="you_are_so_precious.png"
       inkscape:export-xdpi="160"
       inkscape:export-ydpi="160" />
  </g>
</svg>
